# xmcd
# 
# Track frame offsets:
#	150
#	22519
#	38857
#	52872
#	76649
#	85830
#	104206
#	119622
#	145601
#	162879
#	179959
#	203843
#	222722
#
# Disc length: 3199 seconds
#
# Revision: 1
# Processed by: cddbd v1.4PL0 Copyright (c) Steve Scherf et al.
# Submitted via: Audio-CD-Archiv 2.10.438
#
DISCID=b00c7d0d
DTITLE=Deborah J. Carter - Scuse Me
DYEAR=1900
DGENRE=blues
TTITLE0=The Forest
TTITLE1='Scuse Me
TTITLE2=Remembering You
TTITLE3=Alone Again, Naturally
TTITLE4=Golden Slumbers
TTITLE5=Sleeping Beauty
TTITLE6=Winter Samba
TTITLE7=Sugar  b: Sugar II Me
TTITLE8=Don't Get Around Much Anymore
TTITLE9=Sabado!
TTITLE10=Breathless
TTITLE11=A Misunderstanding
TTITLE12=My Home
EXTD=
EXTT0=
EXTT1=
EXTT2=
EXTT3=
EXTT4=
EXTT5=
EXTT6=
EXTT7=
EXTT8=
EXTT9=
EXTT10=
EXTT11=
EXTT12=
PLAYORDER=
